<svg id="icons" xmlns="http://www.w3.org/2000/svg" viewBox="0 0 64 64"><title>headphone</title><g id="headphone"><path d="M59,45h0a2,2,0,0,1,2,2v2a2,2,0,0,1-2,2" fill="#f0d187"/><path d="M5,45H5a2,2,0,0,0-2,2v2a2,2,0,0,0,2,2" fill="#f0d187"/><path d="M13.73,28C13.73,17.4,22,8.5,32,8.5h0c10,0,18.27,8.9,18.27,19.5H57C57,13.68,45.51,2,32,2h0C18.49,2,7,13.68,7,28Z" fill="#dbd0c8"/><path d="M13.73,28C13.73,17.4,22,8.5,32,8.5h0c10,0,18.27,8.9,18.27,19.5H57C57,13.68,45.51,2,32,2h0C18.49,2,7,13.68,7,28Z" fill="none" stroke="#544f4b" stroke-linejoin="round" stroke-width="2"/><line x1="54" y1="48" x2="54" y2="35" fill="none" stroke="#544f4b" stroke-miterlimit="10" stroke-width="2"/><rect x="50" y="39" width="8" height="18" rx="4" ry="4" fill="#dbc07b"/><rect x="50" y="39" width="8" height="18" rx="4" ry="4" fill="none" stroke="#544f4b" stroke-miterlimit="10" stroke-width="2"/><rect x="38" y="34" width="12" height="28" rx="6" ry="6" fill="#5ca1a1"/><rect x="38" y="34" width="12" height="28" rx="6" ry="6" fill="none" stroke="#544f4b" stroke-linecap="round" stroke-linejoin="round" stroke-width="2"/><path d="M59,45h0a2,2,0,0,1,2,2v2a2,2,0,0,1-2,2" fill="none" stroke="#544f4b" stroke-linejoin="round" stroke-width="2"/><rect x="52" y="28" width="4" height="7" fill="#b59c90"/><rect x="8" y="28" width="4" height="7" fill="#b59c90"/><rect x="52" y="28" width="4" height="7" fill="none" stroke="#544f4b" stroke-miterlimit="10" stroke-width="2"/><line x1="10" y1="48" x2="10" y2="35" fill="none" stroke="#544f4b" stroke-miterlimit="10" stroke-width="2"/><rect x="6" y="39" width="8" height="18" rx="4" ry="4" transform="translate(20 96) rotate(180)" fill="#dbc07b"/><rect x="6" y="39" width="8" height="18" rx="4" ry="4" transform="translate(20 96) rotate(180)" fill="none" stroke="#544f4b" stroke-miterlimit="10" stroke-width="2"/><rect x="14" y="34" width="12" height="28" rx="6" ry="6" transform="translate(40 96) rotate(-180)" fill="#5ca1a1"/><rect x="14" y="34" width="12" height="28" rx="6" ry="6" transform="translate(40 96) rotate(-180)" fill="none" stroke="#544f4b" stroke-linecap="round" stroke-linejoin="round" stroke-width="2"/><path d="M5,45H5a2,2,0,0,0-2,2v2a2,2,0,0,0,2,2" fill="none" stroke="#544f4b" stroke-linejoin="round" stroke-width="2"/><rect x="8" y="28" width="4" height="7" fill="none" stroke="#544f4b" stroke-miterlimit="10" stroke-width="2"/><path d="M42,39V56a2,2,0,0,0,2,2" fill="none" stroke="#70bbbb" stroke-linecap="round" stroke-miterlimit="10" stroke-width="2"/><path d="M22,39V56a2,2,0,0,1-2,2" fill="none" stroke="#70bbbb" stroke-linecap="round" stroke-miterlimit="10" stroke-width="2"/><line x1="28" y1="18" x2="28" y2="30" fill="none" stroke="#544f4b" stroke-linecap="round" stroke-miterlimit="10" stroke-width="2"/><line x1="32" y1="15" x2="32" y2="33" fill="none" stroke="#544f4b" stroke-linecap="round" stroke-miterlimit="10" stroke-width="2"/><line x1="36" y1="18" x2="36" y2="30" fill="none" stroke="#544f4b" stroke-linecap="round" stroke-miterlimit="10" stroke-width="2"/><line x1="40" y1="20" x2="40" y2="28" fill="none" stroke="#544f4b" stroke-linecap="round" stroke-miterlimit="10" stroke-width="2"/><line x1="24" y1="20" x2="24" y2="28" fill="none" stroke="#544f4b" stroke-linecap="round" stroke-miterlimit="10" stroke-width="2"/><line x1="44" y1="22" x2="44" y2="26" fill="none" stroke="#544f4b" stroke-linecap="round" stroke-miterlimit="10" stroke-width="2"/><line x1="20" y1="22" x2="20" y2="26" fill="none" stroke="#544f4b" stroke-linecap="round" stroke-miterlimit="10" stroke-width="2"/></g></svg>